<?xml version="1.0" standalone="no"?>
<!DOCTYPE svg PUBLIC "-//W3C//DTD SVG 20010904//EN"
 "http://www.w3.org/TR/2001/REC-SVG-20010904/DTD/svg10.dtd">
<svg version="1.0" xmlns="http://www.w3.org/2000/svg"
 width="400.000000pt" height="400.000000pt" viewBox="0 0 400.000000 400.000000"
 preserveAspectRatio="xMidYMid meet">
<metadata>
Created by potrace 1.16, written by Peter Selinger 2001-2019
</metadata>
<g transform="translate(0.000000,400.000000) scale(0.100000,-0.100000)"
fill="#000000" stroke="none">
<path d="M612 2947 l-422 -422 58 -58 57 -57 423 423 422 422 -58 58 -57 57
-423 -423z"/>
<path d="M1075 2892 l-330 -67 -16 -125 c-9 -69 -33 -237 -53 -374 l-37 -249
73 -74 c40 -40 75 -73 78 -73 5 0 18 88 80 544 16 117 33 212 40 216 6 4 55
15 108 24 94 16 492 92 541 102 23 5 20 9 -45 75 -42 42 -76 69 -89 68 -11 0
-168 -31 -350 -67z"/>
<path d="M1370 2634 c-187 -40 -343 -184 -407 -377 -24 -75 -27 -96 -27 -237
-1 -124 3 -168 18 -220 59 -204 201 -343 401 -395 76 -19 231 -19 315 1 136
32 270 122 339 227 l18 28 28 -41 c46 -67 135 -141 210 -176 98 -45 174 -58
308 -51 173 8 290 58 402 171 110 112 165 266 165 465 0 204 -53 347 -174 466
-78 77 -147 116 -248 140 -80 19 -233 19 -321 0 -121 -25 -247 -107 -330 -215
-26 -34 -27 -34 -39 -15 -26 43 -125 138 -179 171 -114 69 -316 94 -479 58z
m342 -166 c101 -47 178 -148 209 -274 7 -27 13 -105 13 -174 0 -104 -4 -137
-22 -195 -62 -191 -194 -285 -398 -285 -204 0 -336 103 -385 300 -20 83 -18
291 5 365 24 80 50 128 94 177 82 91 160 119 317 115 93 -3 119 -7 167 -29z
m1029 0 c109 -50 176 -147 205 -295 52 -273 -37 -516 -219 -599 -89 -40 -227
-46 -328 -14 -124 40 -219 152 -250 295 -19 86 -16 266 5 345 38 146 134 250
265 287 29 8 87 12 156 10 93 -3 119 -7 166 -29z"/>
<path d="M3296 2042 c-15 -147 -94 -684 -102 -691 -5 -5 -99 -25 -209 -45
-110 -21 -260 -49 -333 -63 l-133 -26 71 -72 71 -71 341 68 c188 37 345 71
349 75 3 5 30 173 58 374 l52 367 -75 76 c-42 42 -77 76 -79 76 -3 0 -7 -31
-11 -68z"/>
<path d="M3372 1207 c-226 -226 -412 -417 -412 -422 0 -6 24 -35 54 -64 l54
-53 422 422 422 421 -57 55 c-32 30 -60 54 -64 54 -3 0 -192 -186 -419 -413z"/>
</g>
</svg>
