<?xml version="1.0" encoding="UTF-8" standalone="no"?>
<svg
   xmlns:dc="http://purl.org/dc/elements/1.1/"
   xmlns:cc="http://creativecommons.org/ns#"
   xmlns:rdf="http://www.w3.org/1999/02/22-rdf-syntax-ns#"
   xmlns:svg="http://www.w3.org/2000/svg"
   xmlns="http://www.w3.org/2000/svg"
   viewBox="0 0 1122.52 1587.4"
   height="1587.4"
   width="1122.52"
   xml:space="preserve"
   id="svg2"
   version="1.1"><metadata
     id="metadata8"><rdf:RDF><cc:Work
         rdf:about=""><dc:format>image/svg+xml</dc:format><dc:type
           rdf:resource="http://purl.org/dc/dcmitype/StillImage" /></cc:Work></rdf:RDF></metadata><defs
     id="defs6"><clipPath
       id="clipPath18"
       clipPathUnits="userSpaceOnUse"><path
         id="path16"
         d="M 0,1190.55 H 841.89 V 0 H 0 Z" /></clipPath><linearGradient
       id="linearGradient172"
       spreadMethod="pad"
       gradientTransform="matrix(126.652,0,0,126.652,398.3515,1534.1378)"
       gradientUnits="userSpaceOnUse"
       y2="0"
       x2="1"
       y1="0"
       x1="0"><stop
         id="stop166"
         offset="0"
         style="stop-opacity:1;stop-color:#c7b8da" /><stop
         id="stop168"
         offset="0.349462"
         style="stop-opacity:1;stop-color:#9b7cb8" /><stop
         id="stop170"
         offset="1"
         style="stop-opacity:1;stop-color:#662c91" /></linearGradient><linearGradient
       id="linearGradient184"
       spreadMethod="pad"
       gradientTransform="matrix(68.1396,0,0,68.1396,418.6055,1515.2498)"
       gradientUnits="userSpaceOnUse"
       y2="0"
       x2="1"
       y1="0"
       x1="0"><stop
         id="stop178"
         offset="0"
         style="stop-opacity:1;stop-color:#c7b8da" /><stop
         id="stop180"
         offset="0.349462"
         style="stop-opacity:1;stop-color:#9b7cb8" /><stop
         id="stop182"
         offset="1"
         style="stop-opacity:1;stop-color:#714099" /></linearGradient></defs><g
     transform="matrix(1.3333333,0,0,-1.3333333,0,1587.4)"
     id="g10"><g
       id="g12"><g
         clip-path="url(#clipPath18)"
         id="g14"><g
           transform="translate(182.3325,1008.2168)"
           id="g20"><path
             id="path22"
             style="fill:none;stroke:#231f20;stroke-width:3;stroke-linecap:butt;stroke-linejoin:miter;stroke-miterlimit:10;stroke-dasharray:none;stroke-opacity:1"
             d="m 0,0 -48,-134 84,82.667 68,-41.334 -10,46 c 0,0 16,-44 66.667,-44 50.666,0 68,41.334 68,41.334 0,0 16.666,-34.667 59.333,-34.667 42.667,0 61.333,36.667 61.333,36.667 l -28,-87.334 78,83.334 64.667,-42 L 442.667,-26 519.333,96.667 412.667,19.333 l 6.666,33.334" /></g><g
           transform="translate(228.3325,1065.5498)"
           id="g24"><path
             id="path26"
             style="fill:none;stroke:#231f20;stroke-width:3;stroke-linecap:butt;stroke-linejoin:miter;stroke-miterlimit:10;stroke-dasharray:none;stroke-opacity:1"
             d="m 0,0 -7.333,-42 114,115.333 -44.667,-96 C 62,-22.667 79.333,2 116.667,2 154,2 179.333,-24.666 179.333,-39.333 c 0,0 12,40.666 67.334,40.666 55.333,0 62,-37.333 62,-37.333" /></g><g
           transform="translate(396.8281,751.6016)"
           id="g28"><path
             id="path30"
             style="fill:#ffffff;fill-opacity:1;fill-rule:nonzero;stroke:none"
             d="m 0,0 c -5.894,16.594 -23.577,24.232 -23.577,24.232 l -64.838,24.888 -15.718,12.661 c 0,-47.593 -45.846,-46.718 -45.846,-46.718 0,0 -45.845,-0.875 -45.845,46.718 L -211.542,49.12 -276.38,24.232 c 0,0 -17.683,-7.638 -23.578,-24.232 l -36.021,-81.211 61.564,-23.577 14.408,31.436 v -240.804 h 110.028 110.029 v 240.804 l 14.408,-31.436 61.563,23.577 z" /></g><g
           transform="translate(396.8281,751.6016)"
           id="g32"><path
             id="path34"
             style="fill:none;stroke:#231f20;stroke-width:2.61999989;stroke-linecap:butt;stroke-linejoin:miter;stroke-miterlimit:10;stroke-dasharray:none;stroke-opacity:1"
             d="m 0,0 c -5.894,16.594 -23.577,24.232 -23.577,24.232 l -64.838,24.888 -15.718,12.661 c 0,-47.593 -45.846,-46.718 -45.846,-46.718 0,0 -45.845,-0.875 -45.845,46.718 L -211.542,49.12 -276.38,24.232 c 0,0 -17.683,-7.638 -23.578,-24.232 l -36.021,-81.211 61.564,-23.577 14.408,31.436 v -240.804 h 110.028 110.029 v 240.804 l 14.408,-31.436 61.563,23.577 z" /></g><g
           transform="translate(308,801.0547)"
           id="g36"><path
             id="path38"
             style="fill:none;stroke:#231f20;stroke-width:2.61999989;stroke-linecap:butt;stroke-linejoin:miter;stroke-miterlimit:10;stroke-dasharray:none;stroke-opacity:1"
             d="m 0,0 -15.305,12.328 c 0,-47.593 -45.845,-46.718 -45.845,-46.718 0,0 -45.846,-0.875 -45.846,46.718 L -122.301,0 c 6.606,-23.532 22.652,-48.798 61.151,-48.798 38.499,0 54.546,25.266 61.15,48.798 z" /></g><g
           transform="translate(151.5171,644.7988)"
           id="g40"><path
             id="path42"
             style="fill:none;stroke:#231f20;stroke-width:1.21399999;stroke-linecap:butt;stroke-linejoin:miter;stroke-miterlimit:10;stroke-dasharray:none;stroke-opacity:1"
             d="m 0,0 -19.417,-54.206 33.98,33.44 27.507,-16.719 -4.045,18.607 c 0,0 6.473,-17.799 26.969,-17.799 20.495,0 27.506,16.721 27.506,16.721 0,0 6.743,-14.023 24.002,-14.023 17.26,0 24.811,14.832 24.811,14.832 l -11.326,-35.329 31.553,33.71 26.159,-16.989 -8.63,27.237 31.014,49.622 -43.15,-31.284 2.697,13.485" /></g><g
           transform="translate(170.1255,667.9912)"
           id="g44"><path
             id="path46"
             style="fill:none;stroke:#231f20;stroke-width:1.21399999;stroke-linecap:butt;stroke-linejoin:miter;stroke-miterlimit:10;stroke-dasharray:none;stroke-opacity:1"
             d="M 0,0 -2.967,-16.99 43.149,29.665 25.08,-9.169 c 0,0 7.012,9.978 22.114,9.978 15.102,0 25.35,-10.788 25.35,-16.72 0,0 4.854,16.45 27.239,16.45 22.383,0 25.08,-15.102 25.08,-15.102" /></g><g
           transform="translate(704.7422,977.9604)"
           id="g48"><path
             id="path50"
             style="fill:none;stroke:#231f20;stroke-width:5;stroke-linecap:butt;stroke-linejoin:miter;stroke-miterlimit:10;stroke-dasharray:none;stroke-opacity:1"
             d="m 0,0 -19.417,-54.206 33.98,33.44 27.507,-16.719 -4.045,18.607 c 0,0 6.473,-17.799 26.969,-17.799 20.494,0 27.506,16.721 27.506,16.721 0,0 6.742,-14.023 24.002,-14.023 17.26,0 24.81,14.832 24.81,14.832 l -11.326,-35.329 31.553,33.71 26.16,-16.989 -8.631,27.237 31.014,49.622 -43.148,-31.284 2.697,13.485" /></g><g
           transform="translate(723.3506,1001.1528)"
           id="g52"><path
             id="path54"
             style="fill:none;stroke:#231f20;stroke-width:5;stroke-linecap:butt;stroke-linejoin:miter;stroke-miterlimit:10;stroke-dasharray:none;stroke-opacity:1"
             d="M 0,0 -2.967,-16.99 43.149,29.665 25.08,-9.169 c 0,0 7.012,9.978 22.114,9.978 15.102,0 25.35,-10.788 25.35,-16.72 0,0 4.853,16.45 27.238,16.45 22.383,0 25.08,-15.102 25.08,-15.102" /></g><g
           transform="translate(66.8428,680.4238)"
           id="g56"><path
             id="path58"
             style="fill:#231f20;fill-opacity:1;fill-rule:nonzero;stroke:none"
             d="M 0,0 61.364,-24.447" /></g><g
           transform="translate(66.8428,680.4238)"
           id="g60"><path
             id="path62"
             style="fill:none;stroke:#231f20;stroke-width:1;stroke-linecap:butt;stroke-linejoin:miter;stroke-miterlimit:10;stroke-dasharray:none;stroke-opacity:1"
             d="M 0,0 2.322,-0.925" /></g><g
           transform="translate(73.5283,677.7603)"
           id="g64"><path
             id="path66"
             style="fill:none;stroke:#231f20;stroke-width:1;stroke-linecap:butt;stroke-linejoin:miter;stroke-miterlimit:10;stroke-dasharray:4.697, 4.697;stroke-dashoffset:0;stroke-opacity:1"
             d="M 0,0 50.175,-19.989" /></g><g
           transform="translate(125.8848,656.9019)"
           id="g68"><path
             id="path70"
             style="fill:none;stroke:#231f20;stroke-width:1;stroke-linecap:butt;stroke-linejoin:miter;stroke-miterlimit:10;stroke-dasharray:none;stroke-opacity:1"
             d="M 0,0 2.322,-0.925" /></g><g
           transform="translate(427.9844,680.4238)"
           id="g72"><path
             id="path74"
             style="fill:#231f20;fill-opacity:1;fill-rule:nonzero;stroke:none"
             d="M 0,0 -61.364,-24.447" /></g><g
           transform="translate(427.9844,680.4238)"
           id="g76"><path
             id="path78"
             style="fill:none;stroke:#231f20;stroke-width:1;stroke-linecap:butt;stroke-linejoin:miter;stroke-miterlimit:10;stroke-dasharray:none;stroke-opacity:1"
             d="M 0,0 -2.322,-0.925" /></g><g
           transform="translate(421.2993,677.7603)"
           id="g80"><path
             id="path82"
             style="fill:none;stroke:#231f20;stroke-width:1;stroke-linecap:butt;stroke-linejoin:miter;stroke-miterlimit:10;stroke-dasharray:4.697, 4.697;stroke-dashoffset:0;stroke-opacity:1"
             d="M 0,0 -50.175,-19.989" /></g><g
           transform="translate(368.9429,656.9019)"
           id="g84"><path
             id="path86"
             style="fill:none;stroke:#231f20;stroke-width:1;stroke-linecap:butt;stroke-linejoin:miter;stroke-miterlimit:10;stroke-dasharray:none;stroke-opacity:1"
             d="M 0,0 -2.322,-0.925" /></g><g
           transform="translate(136.8213,448.5498)"
           id="g88"><path
             id="path90"
             style="fill:#231f20;fill-opacity:1;fill-rule:nonzero;stroke:#231f20;stroke-width:1;stroke-linecap:butt;stroke-linejoin:miter;stroke-miterlimit:10;stroke-dasharray:5;stroke-dashoffset:0;stroke-opacity:1"
             d="M 0,0 H 220.057" /></g><g
           transform="translate(396.8281,356.7061)"
           id="g92"><path
             id="path94"
             style="fill:#231f20;fill-opacity:1;fill-rule:nonzero;stroke:none"
             d="m 0,0 c -5.894,16.594 -23.577,24.232 -23.577,24.232 l -64.838,24.888 -15.718,12.661 c 0,-47.593 -45.846,-46.718 -45.846,-46.718 0,0 -45.845,-0.875 -45.845,46.718 L -211.542,49.12 -276.38,24.232 c 0,0 -17.683,-7.638 -23.578,-24.232 l -36.021,-81.211 61.564,-23.577 14.408,31.436 v -240.804 h 110.028 110.029 v 240.804 l 14.408,-31.436 61.563,23.577 z" /></g><g
           transform="translate(396.8281,356.7061)"
           id="g96"><path
             id="path98"
             style="fill:none;stroke:#d1d1d2;stroke-width:1;stroke-linecap:butt;stroke-linejoin:miter;stroke-miterlimit:10;stroke-dasharray:none;stroke-opacity:1"
             d="m 0,0 c -5.894,16.594 -23.577,24.232 -23.577,24.232 l -64.838,24.888 -15.718,12.661 c 0,-47.593 -45.846,-46.718 -45.846,-46.718 0,0 -45.845,-0.875 -45.845,46.718 L -211.542,49.12 -276.38,24.232 c 0,0 -17.683,-7.638 -23.578,-24.232 l -36.021,-81.211 61.564,-23.577 14.408,31.436 v -240.804 h 110.028 110.029 v 240.804 l 14.408,-31.436 61.563,23.577 z" /></g><g
           transform="translate(308,406.1592)"
           id="g100"><path
             id="path102"
             style="fill:none;stroke:#d1d1d2;stroke-width:1;stroke-linecap:butt;stroke-linejoin:miter;stroke-miterlimit:10;stroke-dasharray:none;stroke-opacity:1"
             d="m 0,0 -15.305,12.328 c 0,-47.593 -45.845,-46.718 -45.845,-46.718 0,0 -45.846,-0.875 -45.846,46.718 L -122.301,0 c 6.606,-23.532 22.652,-48.798 61.151,-48.798 38.499,0 54.546,25.266 61.15,48.798 z" /></g><g
           transform="translate(129.9165,250.0869)"
           id="g104"><path
             id="path106"
             style="fill:none;stroke:#ffffff;stroke-width:1.48899996;stroke-linecap:butt;stroke-linejoin:miter;stroke-miterlimit:10;stroke-dasharray:none;stroke-opacity:1"
             d="m 0,0 -23.816,-66.488 41.679,41.017 33.74,-20.508 -4.962,22.824 c 0,0 7.939,-21.832 33.079,-21.832 25.139,0 33.739,20.509 33.739,20.509 0,0 8.27,-17.201 29.441,-17.201 21.17,0 30.432,18.193 30.432,18.193 l -13.893,-43.332 38.702,41.347 32.087,-20.839 -10.585,33.41 38.04,60.863 -52.926,-38.371 3.308,16.54" /></g><g
           transform="translate(152.7412,278.5342)"
           id="g108"><path
             id="path110"
             style="fill:none;stroke:#ffffff;stroke-width:1.48899996;stroke-linecap:butt;stroke-linejoin:miter;stroke-miterlimit:10;stroke-dasharray:none;stroke-opacity:1"
             d="M 0,0 -3.639,-20.84 52.926,36.387 30.763,-11.246 c 0,0 8.6,12.237 27.124,12.237 18.525,0 31.094,-13.23 31.094,-20.508 0,0 5.954,20.178 33.411,20.178 27.454,0 30.762,-18.523 30.762,-18.523" /></g><g
           transform="translate(66.8428,285.5283)"
           id="g112"><path
             id="path114"
             style="fill:none;stroke:#d1d1d2;stroke-width:1;stroke-linecap:butt;stroke-linejoin:miter;stroke-miterlimit:10;stroke-dasharray:none;stroke-opacity:1"
             d="M 0,0 2.322,-0.926" /></g><g
           transform="translate(73.5283,282.8652)"
           id="g116"><path
             id="path118"
             style="fill:none;stroke:#d1d1d2;stroke-width:1;stroke-linecap:butt;stroke-linejoin:miter;stroke-miterlimit:10;stroke-dasharray:4.697, 4.697;stroke-dashoffset:0;stroke-opacity:1"
             d="M 0,0 50.175,-19.99" /></g><g
           transform="translate(125.8848,262.0068)"
           id="g120"><path
             id="path122"
             style="fill:none;stroke:#d1d1d2;stroke-width:1;stroke-linecap:butt;stroke-linejoin:miter;stroke-miterlimit:10;stroke-dasharray:none;stroke-opacity:1"
             d="M 0,0 2.322,-0.926" /></g><g
           transform="translate(427.9844,285.5283)"
           id="g124"><path
             id="path126"
             style="fill:none;stroke:#d1d1d2;stroke-width:1;stroke-linecap:butt;stroke-linejoin:miter;stroke-miterlimit:10;stroke-dasharray:none;stroke-opacity:1"
             d="M 0,0 -2.322,-0.926" /></g><g
           transform="translate(421.2988,282.8652)"
           id="g128"><path
             id="path130"
             style="fill:none;stroke:#d1d1d2;stroke-width:1;stroke-linecap:butt;stroke-linejoin:miter;stroke-miterlimit:10;stroke-dasharray:4.696, 4.696;stroke-dashoffset:0;stroke-opacity:1"
             d="M 0,0 -50.174,-19.99" /></g><g
           transform="translate(368.9429,262.0068)"
           id="g132"><path
             id="path134"
             style="fill:none;stroke:#d1d1d2;stroke-width:1;stroke-linecap:butt;stroke-linejoin:miter;stroke-miterlimit:10;stroke-dasharray:none;stroke-opacity:1"
             d="M 0,0 -2.322,-0.926" /></g><g
           transform="translate(136.8213,53.6543)"
           id="g136"><path
             id="path138"
             style="fill:none;stroke:#d1d1d2;stroke-width:1;stroke-linecap:butt;stroke-linejoin:miter;stroke-miterlimit:10;stroke-dasharray:none;stroke-opacity:1"
             d="M 0,0 H 2.5" /></g><g
           transform="translate(144.3228,53.6543)"
           id="g140"><path
             id="path142"
             style="fill:none;stroke:#d1d1d2;stroke-width:1;stroke-linecap:butt;stroke-linejoin:miter;stroke-miterlimit:10;stroke-dasharray:5.001, 5.001;stroke-dashoffset:0;stroke-opacity:1"
             d="M 0,0 H 207.555" /></g><g
           transform="translate(354.3779,53.6543)"
           id="g144"><path
             id="path146"
             style="fill:none;stroke:#d1d1d2;stroke-width:1;stroke-linecap:butt;stroke-linejoin:miter;stroke-miterlimit:10;stroke-dasharray:none;stroke-opacity:1"
             d="M 0,0 H 2.5" /></g><g
           transform="translate(792.9502,751.6016)"
           id="g148"><path
             id="path150"
             style="fill:#ffffff;fill-opacity:1;fill-rule:nonzero;stroke:none"
             d="m 0,0 c -5.894,16.594 -23.577,24.232 -23.577,24.232 l -64.838,24.888 -15.718,12.661 c 0,-47.593 -45.846,-46.718 -45.846,-46.718 0,0 -45.844,-0.875 -45.844,46.718 L -211.542,49.12 -276.38,24.232 c 0,0 -17.683,-7.638 -23.578,-24.232 l -36.021,-81.211 61.564,-23.577 14.408,31.436 v -240.804 h 110.028 110.029 v 240.804 l 14.408,-31.436 61.563,23.577 z" /></g><g
           transform="translate(792.9502,751.6016)"
           id="g152"><path
             id="path154"
             style="fill:none;stroke:#231f20;stroke-width:2.61999989;stroke-linecap:butt;stroke-linejoin:miter;stroke-miterlimit:10;stroke-dasharray:none;stroke-opacity:1"
             d="m 0,0 c -5.894,16.594 -23.577,24.232 -23.577,24.232 l -64.838,24.888 -15.718,12.661 c 0,-47.593 -45.846,-46.718 -45.846,-46.718 0,0 -45.844,-0.875 -45.844,46.718 L -211.542,49.12 -276.38,24.232 c 0,0 -17.683,-7.638 -23.578,-24.232 l -36.021,-81.211 61.564,-23.577 14.408,31.436 v -240.804 h 110.028 110.029 v 240.804 l 14.408,-31.436 61.563,23.577 z" /></g><g
           transform="translate(704.1221,801.0547)"
           id="g156"><path
             id="path158"
             style="fill:#bbdef5;fill-opacity:1;fill-rule:nonzero;stroke:none"
             d="m 0,0 -15.305,12.328 c 0,-47.593 -45.845,-46.718 -45.845,-46.718 0,0 -45.845,-0.875 -45.845,46.718 L -122.301,0 c 6.607,-23.532 22.652,-48.798 61.151,-48.798 38.499,0 54.546,25.266 61.15,48.798" /></g><g
           transform="translate(704.1221,801.0547)"
           id="g160"><path
             id="path162"
             style="fill:none;stroke:#231f20;stroke-width:2.61999989;stroke-linecap:butt;stroke-linejoin:miter;stroke-miterlimit:10;stroke-dasharray:none;stroke-opacity:1"
             d="m 0,0 -15.305,12.328 c 0,-47.593 -45.845,-46.718 -45.845,-46.718 0,0 -45.845,-0.875 -45.845,46.718 L -122.301,0 c 6.607,-23.532 22.652,-48.798 61.151,-48.798 38.499,0 54.546,25.266 61.15,48.798 z" /></g><g
           transform="translate(594.8437,668.6084)"
           id="g164"><path
             id="path174"
             style="fill:none;stroke:url(#linearGradient172);stroke-width:3.60599995;stroke-linecap:round;stroke-linejoin:miter;stroke-miterlimit:10;stroke-dasharray:none;stroke-opacity:1"
             d="m 0,0 -9.803,-27.366 17.155,16.883 13.887,-8.441 -2.043,9.394 c 0,0 3.268,-8.986 13.616,-8.986 10.346,0 13.886,8.442 13.886,8.442 0,0 3.405,-7.08 12.117,-7.08 8.714,0 12.526,7.487 12.526,7.487 l -5.718,-17.834 15.93,17.018 13.206,-8.577 -4.357,13.75 15.658,25.052 -21.785,-15.794 1.362,6.808" /></g><g
           transform="translate(604.2383,680.3174)"
           id="g176"><path
             id="path186"
             style="fill:none;stroke:url(#linearGradient184);stroke-width:3.60599995;stroke-linecap:round;stroke-linejoin:round;stroke-miterlimit:10;stroke-dasharray:none;stroke-opacity:1"
             d="M 0,0 -1.498,-8.578 21.783,14.976 12.661,-4.629 c 0,0 3.54,5.037 11.164,5.037 7.624,0 12.798,-5.446 12.798,-8.441 0,0 2.451,8.305 13.752,8.305 11.3,0 12.661,-7.624 12.661,-7.624" /></g><g
           transform="translate(714.9961,887.0586)"
           id="g188"><path
             id="path190"
             style="fill:none;stroke:#231f20;stroke-width:3;stroke-linecap:butt;stroke-linejoin:miter;stroke-miterlimit:10;stroke-dasharray:none;stroke-opacity:1"
             d="m 0,0 -10.874,-30.358 19.03,18.728 15.406,-9.364 -2.266,10.421 c 0,0 3.625,-9.968 15.103,-9.968 11.479,0 15.406,9.365 15.406,9.365 0,0 3.776,-7.854 13.442,-7.854 9.666,0 13.895,8.306 13.895,8.306 L 72.799,-30.509 90.47,-11.63 105.12,-21.145 100.287,-5.89 117.656,21.9 93.49,4.38 l 1.511,7.552" /></g><g
           transform="translate(725.418,900.0474)"
           id="g192"><path
             id="path194"
             style="fill:none;stroke:#231f20;stroke-width:3;stroke-linecap:round;stroke-linejoin:round;stroke-miterlimit:10;stroke-dasharray:none;stroke-opacity:1"
             d="M 0,0 -1.661,-9.515 24.165,16.614 14.046,-5.135 c 0,0 3.927,5.588 12.385,5.588 8.458,0 14.197,-6.041 14.197,-9.364 0,0 2.719,9.213 15.255,9.213 12.535,0 14.046,-8.458 14.046,-8.458" /></g><g
           transform="translate(462.9648,680.4238)"
           id="g196"><path
             id="path198"
             style="fill:#231f20;fill-opacity:1;fill-rule:nonzero;stroke:none"
             d="M 0,0 61.364,-24.447" /></g><g
           transform="translate(462.9648,680.4238)"
           id="g200"><path
             id="path202"
             style="fill:none;stroke:#231f20;stroke-width:1;stroke-linecap:butt;stroke-linejoin:miter;stroke-miterlimit:10;stroke-dasharray:none;stroke-opacity:1"
             d="M 0,0 2.322,-0.925" /></g><g
           transform="translate(469.6504,677.7603)"
           id="g204"><path
             id="path206"
             style="fill:none;stroke:#231f20;stroke-width:1;stroke-linecap:butt;stroke-linejoin:miter;stroke-miterlimit:10;stroke-dasharray:4.697, 4.697;stroke-dashoffset:0;stroke-opacity:1"
             d="M 0,0 50.175,-19.989" /></g><g
           transform="translate(522.0068,656.9019)"
           id="g208"><path
             id="path210"
             style="fill:none;stroke:#231f20;stroke-width:1;stroke-linecap:butt;stroke-linejoin:miter;stroke-miterlimit:10;stroke-dasharray:none;stroke-opacity:1"
             d="M 0,0 2.322,-0.925" /></g><g
           transform="translate(824.1064,680.4238)"
           id="g212"><path
             id="path214"
             style="fill:#231f20;fill-opacity:1;fill-rule:nonzero;stroke:none"
             d="M 0,0 -61.364,-24.447" /></g><g
           transform="translate(824.1064,680.4238)"
           id="g216"><path
             id="path218"
             style="fill:none;stroke:#231f20;stroke-width:1;stroke-linecap:butt;stroke-linejoin:miter;stroke-miterlimit:10;stroke-dasharray:none;stroke-opacity:1"
             d="M 0,0 -2.322,-0.925" /></g><g
           transform="translate(817.4219,677.7603)"
           id="g220"><path
             id="path222"
             style="fill:none;stroke:#231f20;stroke-width:1;stroke-linecap:butt;stroke-linejoin:miter;stroke-miterlimit:10;stroke-dasharray:4.697, 4.697;stroke-dashoffset:0;stroke-opacity:1"
             d="M 0,0 -50.176,-19.989" /></g><g
           transform="translate(765.0645,656.9019)"
           id="g224"><path
             id="path226"
             style="fill:none;stroke:#231f20;stroke-width:1;stroke-linecap:butt;stroke-linejoin:miter;stroke-miterlimit:10;stroke-dasharray:none;stroke-opacity:1"
             d="M 0,0 -2.322,-0.925" /></g><g
           transform="translate(532.9434,448.5498)"
           id="g228"><path
             id="path230"
             style="fill:#231f20;fill-opacity:1;fill-rule:nonzero;stroke:#231f20;stroke-width:1;stroke-linecap:butt;stroke-linejoin:miter;stroke-miterlimit:10;stroke-dasharray:5;stroke-dashoffset:0;stroke-opacity:1"
             d="M 0,0 H 220.057" /></g><g
           transform="translate(356.8779,285.5283)"
           id="g232"><path
             id="path234"
             style="fill:#231f20;fill-opacity:1;fill-rule:nonzero;stroke:none"
             d="M 0,0 9.111,-22.054 47.456,0.779 36.122,33.021 Z" /></g></g></g></g></svg>